<svg width="1202" height="592" viewBox="0 0 1202 592" fill="none" xmlns="http://www.w3.org/2000/svg">
<path d="M807.027 475.364C806.882 473.906 806.239 472.747 805.097 471.886C803.955 471.026 802.519 470.595 800.789 470.595C799.57 470.595 798.496 470.804 797.567 471.222C796.646 471.639 795.922 472.219 795.394 472.96C794.874 473.693 794.614 474.528 794.614 475.466C794.614 476.156 794.763 476.761 795.061 477.281C795.36 477.801 795.76 478.249 796.263 478.624C796.774 478.99 797.337 479.305 797.95 479.57C798.573 479.834 799.199 480.055 799.83 480.234L802.591 481.027C803.426 481.257 804.262 481.551 805.097 481.909C805.932 482.267 806.695 482.719 807.385 483.264C808.084 483.801 808.642 484.462 809.06 485.246C809.486 486.021 809.699 486.955 809.699 488.045C809.699 489.443 809.337 490.7 808.612 491.817C807.888 492.933 806.848 493.82 805.493 494.476C804.138 495.124 802.514 495.447 800.622 495.447C798.841 495.447 797.294 495.153 795.982 494.565C794.669 493.969 793.638 493.146 792.888 492.098C792.138 491.05 791.716 489.835 791.622 488.455H794.077C794.162 489.486 794.503 490.359 795.1 491.075C795.696 491.791 796.472 492.337 797.426 492.712C798.381 493.078 799.446 493.261 800.622 493.261C801.926 493.261 803.085 493.044 804.1 492.609C805.122 492.166 805.923 491.553 806.503 490.768C807.091 489.976 807.385 489.055 807.385 488.007C807.385 487.121 807.155 486.379 806.695 485.783C806.235 485.178 805.591 484.67 804.764 484.261C803.946 483.852 802.996 483.49 801.914 483.175L798.781 482.254C796.727 481.641 795.134 480.793 794 479.71C792.867 478.628 792.3 477.247 792.3 475.568C792.3 474.162 792.675 472.926 793.425 471.861C794.183 470.787 795.206 469.952 796.493 469.355C797.789 468.75 799.242 468.447 800.852 468.447C802.48 468.447 803.921 468.746 805.173 469.342C806.426 469.939 807.419 470.761 808.152 471.81C808.894 472.849 809.29 474.034 809.341 475.364H807.027ZM827.456 487.496V475.364H829.732V495H827.456V491.74H827.277C826.817 492.746 826.088 493.585 825.091 494.259C824.094 494.923 822.875 495.256 821.435 495.256C820.182 495.256 819.07 494.983 818.098 494.438C817.127 493.884 816.364 493.074 815.81 492.009C815.256 490.943 814.979 489.635 814.979 488.084V475.364H817.254V487.943C817.254 489.477 817.706 490.713 818.61 491.651C819.513 492.58 820.672 493.044 822.087 493.044C822.973 493.044 823.825 492.831 824.644 492.405C825.462 491.979 826.135 491.357 826.664 490.538C827.192 489.712 827.456 488.697 827.456 487.496ZM835.756 502.364V475.364H837.968V479.109H838.236C838.509 478.521 838.884 477.92 839.361 477.307C839.839 476.685 840.469 476.161 841.253 475.734C842.046 475.308 843.043 475.095 844.245 475.095C845.864 475.095 847.279 475.521 848.489 476.374C849.708 477.217 850.654 478.402 851.327 479.928C852.009 481.445 852.35 483.213 852.35 485.233C852.35 487.261 852.009 489.038 851.327 490.564C850.654 492.089 849.708 493.278 848.489 494.131C847.279 494.983 845.873 495.409 844.27 495.409C843.086 495.409 842.093 495.196 841.292 494.77C840.499 494.344 839.856 493.82 839.361 493.197C838.876 492.567 838.501 491.953 838.236 491.357H838.032V502.364H835.756ZM838.006 485.195C838.006 486.78 838.241 488.186 838.709 489.413C839.187 490.632 839.868 491.591 840.755 492.29C841.65 492.98 842.732 493.325 844.002 493.325C845.306 493.325 846.405 492.967 847.3 492.251C848.204 491.527 848.89 490.551 849.358 489.324C849.836 488.097 850.074 486.72 850.074 485.195C850.074 483.686 849.84 482.327 849.371 481.116C848.911 479.906 848.229 478.947 847.326 478.24C846.422 477.524 845.314 477.166 844.002 477.166C842.724 477.166 841.637 477.511 840.742 478.202C839.847 478.884 839.165 479.83 838.697 481.04C838.236 482.241 838.006 483.626 838.006 485.195ZM857.342 502.364V475.364H859.554V479.109H859.822C860.095 478.521 860.47 477.92 860.947 477.307C861.425 476.685 862.055 476.161 862.839 475.734C863.632 475.308 864.629 475.095 865.831 475.095C867.45 475.095 868.865 475.521 870.075 476.374C871.294 477.217 872.24 478.402 872.913 479.928C873.595 481.445 873.936 483.213 873.936 485.233C873.936 487.261 873.595 489.038 872.913 490.564C872.24 492.089 871.294 493.278 870.075 494.131C868.865 494.983 867.459 495.409 865.856 495.409C864.672 495.409 863.679 495.196 862.878 494.77C862.085 494.344 861.442 493.82 860.947 493.197C860.461 492.567 860.086 491.953 859.822 491.357H859.618V502.364H857.342ZM859.592 485.195C859.592 486.78 859.827 488.186 860.295 489.413C860.773 490.632 861.454 491.591 862.341 492.29C863.236 492.98 864.318 493.325 865.588 493.325C866.892 493.325 867.991 492.967 868.886 492.251C869.79 491.527 870.476 490.551 870.944 489.324C871.422 488.097 871.66 486.72 871.66 485.195C871.66 483.686 871.426 482.327 870.957 481.116C870.497 479.906 869.815 478.947 868.912 478.24C868.008 477.524 866.9 477.166 865.588 477.166C864.309 477.166 863.223 477.511 862.328 478.202C861.433 478.884 860.751 479.83 860.282 481.04C859.822 482.241 859.592 483.626 859.592 485.195ZM881.204 468.818V495H878.928V468.818H881.204ZM887.251 495V475.364H889.539V495H887.251ZM888.414 471.989C887.945 471.989 887.545 471.831 887.212 471.516C886.88 471.192 886.714 470.804 886.714 470.352C886.714 469.901 886.88 469.517 887.212 469.202C887.545 468.878 887.945 468.716 888.414 468.716C888.883 468.716 889.283 468.878 889.616 469.202C889.948 469.517 890.114 469.901 890.114 470.352C890.114 470.804 889.948 471.192 889.616 471.516C889.283 471.831 888.883 471.989 888.414 471.989ZM903.496 495.409C901.664 495.409 900.078 494.983 898.74 494.131C897.402 493.27 896.367 492.081 895.634 490.564C894.909 489.038 894.547 487.283 894.547 485.297C894.547 483.32 894.909 481.564 895.634 480.03C896.367 478.487 897.377 477.281 898.664 476.412C899.959 475.534 901.455 475.095 903.151 475.095C904.216 475.095 905.243 475.291 906.232 475.683C907.22 476.067 908.107 476.659 908.891 477.46C909.683 478.253 910.31 479.254 910.77 480.464C911.23 481.666 911.46 483.089 911.46 484.734V485.859H896.119V483.852H909.134C909.134 482.591 908.878 481.457 908.367 480.452C907.864 479.437 907.161 478.636 906.257 478.048C905.362 477.46 904.327 477.166 903.151 477.166C901.906 477.166 900.811 477.499 899.865 478.163C898.919 478.828 898.178 479.706 897.641 480.797C897.112 481.888 896.844 483.081 896.835 484.376V485.578C896.835 487.138 897.104 488.501 897.641 489.669C898.186 490.828 898.958 491.727 899.955 492.366C900.952 493.006 902.132 493.325 903.496 493.325C904.425 493.325 905.239 493.18 905.938 492.891C906.645 492.601 907.237 492.213 907.715 491.727C908.2 491.233 908.567 490.692 908.814 490.104L910.975 490.807C910.676 491.634 910.186 492.396 909.504 493.095C908.831 493.794 907.987 494.357 906.973 494.783C905.968 495.2 904.808 495.409 903.496 495.409ZM916.475 495V475.364H918.687V478.381H918.853C919.245 477.392 919.927 476.595 920.898 475.99C921.878 475.376 922.986 475.07 924.222 475.07C924.41 475.07 924.618 475.074 924.849 475.082C925.079 475.091 925.27 475.099 925.424 475.108V477.422C925.322 477.405 925.143 477.379 924.887 477.345C924.631 477.311 924.354 477.294 924.056 477.294C923.033 477.294 922.121 477.511 921.32 477.946C920.528 478.372 919.901 478.964 919.441 479.723C918.981 480.482 918.751 481.347 918.751 482.318V495H916.475ZM947.064 495.409C945.368 495.409 943.868 494.979 942.564 494.118C941.269 493.257 940.254 492.068 939.521 490.551C938.789 489.026 938.422 487.266 938.422 485.271C938.422 483.26 938.789 481.491 939.521 479.966C940.254 478.432 941.269 477.239 942.564 476.386C943.868 475.526 945.368 475.095 947.064 475.095C948.76 475.095 950.256 475.526 951.551 476.386C952.847 477.247 953.861 478.44 954.594 479.966C955.335 481.491 955.706 483.26 955.706 485.271C955.706 487.266 955.34 489.026 954.607 490.551C953.874 492.068 952.855 493.257 951.551 494.118C950.256 494.979 948.76 495.409 947.064 495.409ZM947.064 493.325C948.428 493.325 949.583 492.959 950.529 492.226C951.475 491.493 952.191 490.517 952.676 489.298C953.171 488.08 953.418 486.737 953.418 485.271C953.418 483.805 953.171 482.459 952.676 481.232C952.191 480.004 951.475 479.02 950.529 478.278C949.583 477.537 948.428 477.166 947.064 477.166C945.709 477.166 944.554 477.537 943.6 478.278C942.654 479.02 941.933 480.004 941.439 481.232C940.953 482.459 940.71 483.805 940.71 485.271C940.71 486.737 940.953 488.08 941.439 489.298C941.933 490.517 942.654 491.493 943.6 492.226C944.546 492.959 945.7 493.325 947.064 493.325ZM968.781 475.364V477.345H959.129V475.364H968.781ZM962.146 495V472.487C962.146 471.43 962.389 470.54 962.875 469.815C963.369 469.091 964.013 468.541 964.805 468.166C965.598 467.791 966.437 467.604 967.324 467.604C967.92 467.604 968.415 467.655 968.807 467.757C969.207 467.851 969.523 467.945 969.753 468.038L969.088 470.033C968.917 469.982 968.709 469.922 968.461 469.854C968.214 469.786 967.903 469.751 967.528 469.751C966.54 469.751 965.777 470.028 965.24 470.582C964.703 471.136 964.434 471.929 964.434 472.96L964.422 495H962.146ZM996.641 479.672L994.557 480.26C994.352 479.672 994.063 479.139 993.688 478.662C993.313 478.185 992.823 477.805 992.218 477.524C991.621 477.243 990.879 477.102 989.993 477.102C988.664 477.102 987.573 477.418 986.72 478.048C985.868 478.679 985.442 479.493 985.442 480.49C985.442 481.334 985.732 482.02 986.311 482.548C986.899 483.068 987.803 483.482 989.021 483.788L991.987 484.517C993.632 484.918 994.864 485.553 995.682 486.422C996.509 487.291 996.922 488.382 996.922 489.695C996.922 490.803 996.615 491.787 996.002 492.648C995.388 493.509 994.531 494.186 993.432 494.68C992.341 495.166 991.075 495.409 989.635 495.409C987.718 495.409 986.137 494.979 984.892 494.118C983.648 493.249 982.851 491.996 982.502 490.359L984.688 489.822C984.969 490.99 985.519 491.872 986.337 492.469C987.164 493.065 988.25 493.364 989.597 493.364C991.105 493.364 992.311 493.027 993.215 492.354C994.118 491.672 994.57 490.82 994.57 489.797C994.57 489.004 994.306 488.339 993.777 487.803C993.249 487.257 992.448 486.857 991.374 486.601L988.165 485.834C986.46 485.425 985.199 484.777 984.381 483.891C983.563 483.004 983.154 481.905 983.154 480.592C983.154 479.51 983.448 478.56 984.036 477.741C984.624 476.915 985.433 476.267 986.465 475.798C987.496 475.33 988.672 475.095 989.993 475.095C991.791 475.095 993.227 475.504 994.301 476.322C995.384 477.132 996.164 478.249 996.641 479.672ZM1001.9 502.364V475.364H1004.12V479.109H1004.38C1004.66 478.521 1005.03 477.92 1005.51 477.307C1005.99 476.685 1006.62 476.161 1007.4 475.734C1008.19 475.308 1009.19 475.095 1010.39 475.095C1012.01 475.095 1013.43 475.521 1014.64 476.374C1015.86 477.217 1016.8 478.402 1017.48 479.928C1018.16 481.445 1018.5 483.213 1018.5 485.233C1018.5 487.261 1018.16 489.038 1017.48 490.564C1016.8 492.089 1015.86 493.278 1014.64 494.131C1013.43 494.983 1012.02 495.409 1010.42 495.409C1009.23 495.409 1008.24 495.196 1007.44 494.77C1006.65 494.344 1006 493.82 1005.51 493.197C1005.02 492.567 1004.65 491.953 1004.38 491.357H1004.18V502.364H1001.9ZM1004.15 485.195C1004.15 486.78 1004.39 488.186 1004.86 489.413C1005.34 490.632 1006.02 491.591 1006.9 492.29C1007.8 492.98 1008.88 493.325 1010.15 493.325C1011.45 493.325 1012.55 492.967 1013.45 492.251C1014.35 491.527 1015.04 490.551 1015.51 489.324C1015.98 488.097 1016.22 486.72 1016.22 485.195C1016.22 483.686 1015.99 482.327 1015.52 481.116C1015.06 479.906 1014.38 478.947 1013.47 478.24C1012.57 477.524 1011.46 477.166 1010.15 477.166C1008.87 477.166 1007.79 477.511 1006.89 478.202C1006 478.884 1005.31 479.83 1004.84 481.04C1004.38 482.241 1004.15 483.626 1004.15 485.195ZM1031.43 495.409C1029.6 495.409 1028.01 494.983 1026.67 494.131C1025.34 493.27 1024.3 492.081 1023.57 490.564C1022.84 489.038 1022.48 487.283 1022.48 485.297C1022.48 483.32 1022.84 481.564 1023.57 480.03C1024.3 478.487 1025.31 477.281 1026.6 476.412C1027.89 475.534 1029.39 475.095 1031.08 475.095C1032.15 475.095 1033.18 475.291 1034.17 475.683C1035.15 476.067 1036.04 476.659 1036.82 477.46C1037.62 478.253 1038.24 479.254 1038.7 480.464C1039.16 481.666 1039.39 483.089 1039.39 484.734V485.859H1024.05V483.852H1037.07C1037.07 482.591 1036.81 481.457 1036.3 480.452C1035.8 479.437 1035.09 478.636 1034.19 478.048C1033.3 477.46 1032.26 477.166 1031.08 477.166C1029.84 477.166 1028.74 477.499 1027.8 478.163C1026.85 478.828 1026.11 479.706 1025.57 480.797C1025.05 481.888 1024.78 483.081 1024.77 484.376V485.578C1024.77 487.138 1025.04 488.501 1025.57 489.669C1026.12 490.828 1026.89 491.727 1027.89 492.366C1028.89 493.006 1030.07 493.325 1031.43 493.325C1032.36 493.325 1033.17 493.18 1033.87 492.891C1034.58 492.601 1035.17 492.213 1035.65 491.727C1036.13 491.233 1036.5 490.692 1036.75 490.104L1038.91 490.807C1038.61 491.634 1038.12 492.396 1037.44 493.095C1036.76 493.794 1035.92 494.357 1034.91 494.783C1033.9 495.2 1032.74 495.409 1031.43 495.409ZM1052.08 495.409C1050.32 495.409 1048.79 494.97 1047.49 494.092C1046.19 493.214 1045.19 492.013 1044.47 490.487C1043.76 488.962 1043.4 487.223 1043.4 485.271C1043.4 483.303 1043.76 481.551 1044.49 480.017C1045.22 478.483 1046.23 477.281 1047.53 476.412C1048.82 475.534 1050.33 475.095 1052.04 475.095C1053.35 475.095 1054.54 475.351 1055.61 475.862C1056.67 476.365 1057.55 477.077 1058.24 477.997C1058.94 478.909 1059.38 479.974 1059.56 481.193H1057.26C1057.02 480.085 1056.44 479.139 1055.53 478.355C1054.63 477.562 1053.48 477.166 1052.08 477.166C1050.83 477.166 1049.72 477.507 1048.76 478.189C1047.79 478.862 1047.04 479.804 1046.49 481.014C1045.96 482.216 1045.69 483.609 1045.69 485.195C1045.69 486.788 1045.95 488.199 1046.48 489.426C1047.01 490.645 1047.75 491.599 1048.7 492.29C1049.67 492.98 1050.79 493.325 1052.08 493.325C1052.95 493.325 1053.74 493.163 1054.46 492.839C1055.18 492.507 1055.79 492.038 1056.27 491.433C1056.77 490.828 1057.1 490.108 1057.27 489.273H1059.57C1059.4 490.457 1058.98 491.514 1058.3 492.443C1057.64 493.364 1056.78 494.088 1055.71 494.616C1054.65 495.145 1053.44 495.409 1052.08 495.409ZM1064.47 495V475.364H1066.76V495H1064.47ZM1065.64 471.989C1065.17 471.989 1064.77 471.831 1064.43 471.516C1064.1 471.192 1063.94 470.804 1063.94 470.352C1063.94 469.901 1064.1 469.517 1064.43 469.202C1064.77 468.878 1065.17 468.716 1065.64 468.716C1066.11 468.716 1066.51 468.878 1066.84 469.202C1067.17 469.517 1067.34 469.901 1067.34 470.352C1067.34 470.804 1067.17 471.192 1066.84 471.516C1066.51 471.831 1066.11 471.989 1065.64 471.989ZM1078.26 495.447C1077.08 495.447 1076 495.217 1075.02 494.757C1074.04 494.288 1073.26 493.615 1072.68 492.737C1072.1 491.851 1071.81 490.777 1071.81 489.516C1071.81 488.544 1071.99 487.726 1072.36 487.061C1072.72 486.396 1073.24 485.851 1073.92 485.425C1074.59 484.999 1075.39 484.662 1076.31 484.415C1077.23 484.168 1078.24 483.976 1079.35 483.839C1080.45 483.703 1081.38 483.584 1082.14 483.482C1082.9 483.379 1083.49 483.217 1083.89 482.996C1084.29 482.774 1084.49 482.416 1084.49 481.922V481.462C1084.49 480.124 1084.09 479.071 1083.29 478.304C1082.5 477.528 1081.35 477.141 1079.86 477.141C1078.45 477.141 1077.29 477.452 1076.4 478.074C1075.51 478.696 1074.89 479.429 1074.53 480.273L1072.37 479.493C1072.81 478.419 1073.43 477.562 1074.21 476.923C1075 476.276 1075.87 475.811 1076.84 475.53C1077.82 475.24 1078.8 475.095 1079.8 475.095C1080.55 475.095 1081.33 475.193 1082.14 475.389C1082.96 475.585 1083.71 475.926 1084.41 476.412C1085.11 476.889 1085.68 477.558 1086.11 478.419C1086.55 479.271 1086.77 480.354 1086.77 481.666V495H1084.49V491.893H1084.35C1084.08 492.473 1083.67 493.036 1083.13 493.581C1082.6 494.126 1081.92 494.574 1081.11 494.923C1080.31 495.273 1079.35 495.447 1078.26 495.447ZM1078.57 493.364C1079.78 493.364 1080.83 493.095 1081.72 492.558C1082.6 492.021 1083.28 491.31 1083.76 490.423C1084.25 489.528 1084.49 488.544 1084.49 487.47V484.632C1084.32 484.794 1084.03 484.939 1083.63 485.067C1083.24 485.195 1082.79 485.31 1082.27 485.412C1081.75 485.506 1081.24 485.587 1080.73 485.655C1080.22 485.723 1079.76 485.783 1079.35 485.834C1078.24 485.97 1077.3 486.183 1076.51 486.473C1075.73 486.763 1075.13 487.163 1074.71 487.675C1074.29 488.178 1074.08 488.825 1074.08 489.618C1074.08 490.811 1074.51 491.736 1075.36 492.392C1076.21 493.04 1077.28 493.364 1078.57 493.364ZM1095.09 468.818V495H1092.82V468.818H1095.09ZM1108.85 475.364V477.345H1099.48V475.364H1108.85ZM1102.41 470.659H1104.7V489.874C1104.7 490.692 1104.84 491.335 1105.12 491.804C1105.4 492.264 1105.76 492.592 1106.22 492.788C1106.67 492.976 1107.15 493.07 1107.66 493.07C1107.96 493.07 1108.22 493.053 1108.43 493.018C1108.64 492.976 1108.83 492.933 1108.99 492.891L1109.48 494.949C1109.25 495.034 1108.98 495.111 1108.66 495.179C1108.33 495.256 1107.93 495.294 1107.46 495.294C1106.62 495.294 1105.82 495.111 1105.04 494.744C1104.27 494.378 1103.64 493.832 1103.15 493.108C1102.65 492.384 1102.41 491.484 1102.41 490.411V470.659ZM1115.6 502.364C1115.15 502.364 1114.73 502.321 1114.34 502.236C1113.95 502.151 1113.63 502.057 1113.4 501.955L1114.02 499.947C1114.79 500.186 1115.48 500.271 1116.09 500.203C1116.69 500.143 1117.23 499.871 1117.7 499.385C1118.17 498.908 1118.59 498.175 1118.95 497.186L1119.67 495.192L1112.45 475.364H1114.91L1120.74 491.996H1120.92L1126.75 475.364H1129.22L1120.91 498.107C1120.56 499.053 1120.13 499.841 1119.62 500.472C1119.11 501.111 1118.51 501.584 1117.84 501.891C1117.18 502.206 1116.43 502.364 1115.6 502.364ZM865.375 539V519.364H867.587V522.381H867.792C868.184 521.366 868.836 520.57 869.748 519.99C870.668 519.402 871.772 519.108 873.059 519.108C874.414 519.108 875.526 519.428 876.395 520.067C877.273 520.697 877.929 521.567 878.364 522.675H878.53C878.973 521.584 879.694 520.719 880.691 520.08C881.696 519.432 882.915 519.108 884.347 519.108C886.171 519.108 887.611 519.683 888.668 520.834C889.725 521.976 890.253 523.646 890.253 525.845V539H887.978V525.845C887.978 524.294 887.581 523.131 886.789 522.355C885.996 521.58 884.952 521.192 883.657 521.192C882.157 521.192 881.002 521.652 880.192 522.572C879.382 523.493 878.978 524.661 878.978 526.075V539H876.651V525.641C876.651 524.311 876.28 523.237 875.539 522.419C874.797 521.601 873.753 521.192 872.407 521.192C871.503 521.192 870.689 521.413 869.965 521.857C869.249 522.3 868.682 522.918 868.265 523.71C867.855 524.494 867.651 525.398 867.651 526.42V539H865.375ZM908.755 531.496V519.364H911.031V539H908.755V535.74H908.576C908.116 536.746 907.387 537.585 906.39 538.259C905.393 538.923 904.174 539.256 902.734 539.256C901.481 539.256 900.369 538.983 899.397 538.438C898.425 537.884 897.663 537.074 897.109 536.009C896.555 534.943 896.278 533.635 896.278 532.084V519.364H898.553V531.943C898.553 533.477 899.005 534.713 899.908 535.651C900.812 536.58 901.971 537.044 903.386 537.044C904.272 537.044 905.124 536.831 905.942 536.405C906.761 535.979 907.434 535.357 907.962 534.538C908.491 533.712 908.755 532.697 908.755 531.496ZM930.248 523.672L928.164 524.26C927.96 523.672 927.67 523.139 927.295 522.662C926.92 522.185 926.43 521.805 925.825 521.524C925.228 521.243 924.487 521.102 923.6 521.102C922.271 521.102 921.18 521.418 920.328 522.048C919.475 522.679 919.049 523.493 919.049 524.49C919.049 525.334 919.339 526.02 919.919 526.548C920.507 527.068 921.41 527.482 922.629 527.788L925.595 528.517C927.24 528.918 928.471 529.553 929.289 530.422C930.116 531.291 930.529 532.382 930.529 533.695C930.529 534.803 930.223 535.787 929.609 536.648C928.995 537.509 928.139 538.186 927.039 538.68C925.949 539.166 924.683 539.409 923.243 539.409C921.325 539.409 919.744 538.979 918.5 538.118C917.255 537.249 916.458 535.996 916.109 534.359L918.295 533.822C918.576 534.99 919.126 535.872 919.944 536.469C920.771 537.065 921.858 537.364 923.204 537.364C924.713 537.364 925.919 537.027 926.822 536.354C927.725 535.672 928.177 534.82 928.177 533.797C928.177 533.004 927.913 532.339 927.385 531.803C926.856 531.257 926.055 530.857 924.981 530.601L921.772 529.834C920.068 529.425 918.806 528.777 917.988 527.891C917.17 527.004 916.761 525.905 916.761 524.592C916.761 523.51 917.055 522.56 917.643 521.741C918.231 520.915 919.041 520.267 920.072 519.798C921.103 519.33 922.279 519.095 923.6 519.095C925.399 519.095 926.835 519.504 927.909 520.322C928.991 521.132 929.771 522.249 930.248 523.672ZM937.788 526.727V539H935.512V512.818H937.788V522.445H937.992C938.452 521.43 939.164 520.621 940.127 520.016C941.099 519.411 942.326 519.108 943.809 519.108C945.138 519.108 946.306 519.381 947.312 519.926C948.317 520.472 949.102 521.277 949.664 522.342C950.227 523.408 950.508 524.72 950.508 526.28V539H948.219V526.42C948.219 524.801 947.768 523.527 946.864 522.598C945.969 521.661 944.759 521.192 943.234 521.192C942.185 521.192 941.252 521.413 940.434 521.857C939.616 522.3 938.968 522.939 938.491 523.774C938.022 524.601 937.788 525.585 937.788 526.727ZM956.5 539V519.364H958.712V522.381H958.878C959.27 521.392 959.952 520.595 960.924 519.99C961.904 519.376 963.012 519.07 964.248 519.07C964.435 519.07 964.644 519.074 964.874 519.082C965.104 519.091 965.296 519.099 965.449 519.108V521.422C965.347 521.405 965.168 521.379 964.912 521.345C964.657 521.311 964.38 521.294 964.081 521.294C963.059 521.294 962.147 521.511 961.346 521.946C960.553 522.372 959.926 522.964 959.466 523.723C959.006 524.482 958.776 525.347 958.776 526.318V539H956.5ZM976.367 539.409C974.671 539.409 973.171 538.979 971.867 538.118C970.571 537.257 969.557 536.068 968.824 534.551C968.091 533.026 967.725 531.266 967.725 529.271C967.725 527.26 968.091 525.491 968.824 523.966C969.557 522.432 970.571 521.239 971.867 520.386C973.171 519.526 974.671 519.095 976.367 519.095C978.063 519.095 979.559 519.526 980.854 520.386C982.15 521.247 983.164 522.44 983.897 523.966C984.638 525.491 985.009 527.26 985.009 529.271C985.009 531.266 984.642 533.026 983.909 534.551C983.176 536.068 982.158 537.257 980.854 538.118C979.559 538.979 978.063 539.409 976.367 539.409ZM976.367 537.325C977.73 537.325 978.885 536.959 979.831 536.226C980.777 535.493 981.493 534.517 981.979 533.298C982.473 532.08 982.721 530.737 982.721 529.271C982.721 527.805 982.473 526.459 981.979 525.232C981.493 524.004 980.777 523.02 979.831 522.278C978.885 521.537 977.73 521.166 976.367 521.166C975.012 521.166 973.857 521.537 972.902 522.278C971.956 523.02 971.236 524.004 970.742 525.232C970.256 526.459 970.013 527.805 970.013 529.271C970.013 530.737 970.256 532.08 970.742 533.298C971.236 534.517 971.956 535.493 972.902 536.226C973.848 536.959 975.003 537.325 976.367 537.325ZM997.636 539.409C995.94 539.409 994.44 538.979 993.136 538.118C991.841 537.257 990.827 536.068 990.094 534.551C989.361 533.026 988.994 531.266 988.994 529.271C988.994 527.26 989.361 525.491 990.094 523.966C990.827 522.432 991.841 521.239 993.136 520.386C994.44 519.526 995.94 519.095 997.636 519.095C999.332 519.095 1000.83 519.526 1002.12 520.386C1003.42 521.247 1004.43 522.44 1005.17 523.966C1005.91 525.491 1006.28 527.26 1006.28 529.271C1006.28 531.266 1005.91 533.026 1005.18 534.551C1004.45 536.068 1003.43 537.257 1002.12 538.118C1000.83 538.979 999.332 539.409 997.636 539.409ZM997.636 537.325C999 537.325 1000.15 536.959 1001.1 536.226C1002.05 535.493 1002.76 534.517 1003.25 533.298C1003.74 532.08 1003.99 530.737 1003.99 529.271C1003.99 527.805 1003.74 526.459 1003.25 525.232C1002.76 524.004 1002.05 523.02 1001.1 522.278C1000.15 521.537 999 521.166 997.636 521.166C996.281 521.166 995.126 521.537 994.172 522.278C993.226 523.02 992.506 524.004 992.011 525.232C991.526 526.459 991.283 527.805 991.283 529.271C991.283 530.737 991.526 532.08 992.011 533.298C992.506 534.517 993.226 535.493 994.172 536.226C995.118 536.959 996.273 537.325 997.636 537.325ZM1011.27 539V519.364H1013.49V522.381H1013.69C1014.08 521.366 1014.73 520.57 1015.65 519.99C1016.57 519.402 1017.67 519.108 1018.96 519.108C1020.31 519.108 1021.42 519.428 1022.29 520.067C1023.17 520.697 1023.83 521.567 1024.26 522.675H1024.43C1024.87 521.584 1025.59 520.719 1026.59 520.08C1027.59 519.432 1028.81 519.108 1030.25 519.108C1032.07 519.108 1033.51 519.683 1034.57 520.834C1035.62 521.976 1036.15 523.646 1036.15 525.845V539H1033.88V525.845C1033.88 524.294 1033.48 523.131 1032.69 522.355C1031.89 521.58 1030.85 521.192 1029.56 521.192C1028.06 521.192 1026.9 521.652 1026.09 522.572C1025.28 523.493 1024.88 524.661 1024.88 526.075V539H1022.55V525.641C1022.55 524.311 1022.18 523.237 1021.44 522.419C1020.7 521.601 1019.65 521.192 1018.31 521.192C1017.4 521.192 1016.59 521.413 1015.86 521.857C1015.15 522.3 1014.58 522.918 1014.16 523.71C1013.75 524.494 1013.55 525.398 1013.55 526.42V539H1011.27ZM1055.37 523.672L1053.29 524.26C1053.08 523.672 1052.79 523.139 1052.42 522.662C1052.04 522.185 1051.55 521.805 1050.95 521.524C1050.35 521.243 1049.61 521.102 1048.72 521.102C1047.39 521.102 1046.3 521.418 1045.45 522.048C1044.6 522.679 1044.17 523.493 1044.17 524.49C1044.17 525.334 1044.46 526.02 1045.04 526.548C1045.63 527.068 1046.53 527.482 1047.75 527.788L1050.72 528.517C1052.36 528.918 1053.59 529.553 1054.41 530.422C1055.24 531.291 1055.65 532.382 1055.65 533.695C1055.65 534.803 1055.34 535.787 1054.73 536.648C1054.12 537.509 1053.26 538.186 1052.16 538.68C1051.07 539.166 1049.8 539.409 1048.36 539.409C1046.45 539.409 1044.87 538.979 1043.62 538.118C1042.38 537.249 1041.58 535.996 1041.23 534.359L1043.42 533.822C1043.7 534.99 1044.25 535.872 1045.07 536.469C1045.89 537.065 1046.98 537.364 1048.33 537.364C1049.83 537.364 1051.04 537.027 1051.94 536.354C1052.85 535.672 1053.3 534.82 1053.3 533.797C1053.3 533.004 1053.03 532.339 1052.51 531.803C1051.98 531.257 1051.18 530.857 1050.1 530.601L1046.89 529.834C1045.19 529.425 1043.93 528.777 1043.11 527.891C1042.29 527.004 1041.88 525.905 1041.88 524.592C1041.88 523.51 1042.18 522.56 1042.76 521.741C1043.35 520.915 1044.16 520.267 1045.19 519.798C1046.22 519.33 1047.4 519.095 1048.72 519.095C1050.52 519.095 1051.96 519.504 1053.03 520.322C1054.11 521.132 1054.89 522.249 1055.37 523.672ZM756.715 556.818V583H754.44V556.818H756.715ZM770.369 583.409C768.673 583.409 767.173 582.979 765.869 582.118C764.573 581.257 763.559 580.068 762.826 578.551C762.093 577.026 761.727 575.266 761.727 573.271C761.727 571.26 762.093 569.491 762.826 567.966C763.559 566.432 764.573 565.239 765.869 564.386C767.173 563.526 768.673 563.095 770.369 563.095C772.065 563.095 773.561 563.526 774.856 564.386C776.151 565.247 777.166 566.44 777.899 567.966C778.64 569.491 779.011 571.26 779.011 573.271C779.011 575.266 778.644 577.026 777.911 578.551C777.178 580.068 776.16 581.257 774.856 582.118C773.561 582.979 772.065 583.409 770.369 583.409ZM770.369 581.325C771.732 581.325 772.887 580.959 773.833 580.226C774.779 579.493 775.495 578.517 775.981 577.298C776.475 576.08 776.722 574.737 776.722 573.271C776.722 571.805 776.475 570.459 775.981 569.232C775.495 568.004 774.779 567.02 773.833 566.278C772.887 565.537 771.732 565.166 770.369 565.166C769.014 565.166 767.859 565.537 766.904 566.278C765.958 567.02 765.238 568.004 764.744 569.232C764.258 570.459 764.015 571.805 764.015 573.271C764.015 574.737 764.258 576.08 764.744 577.298C765.238 578.517 765.958 579.493 766.904 580.226C767.85 580.959 769.005 581.325 770.369 581.325ZM791.677 583.409C789.921 583.409 788.391 582.97 787.087 582.092C785.792 581.214 784.786 580.013 784.07 578.487C783.354 576.962 782.996 575.223 782.996 573.271C782.996 571.303 783.358 569.551 784.083 568.017C784.816 566.483 785.83 565.281 787.126 564.412C788.421 563.534 789.925 563.095 791.638 563.095C792.951 563.095 794.14 563.351 795.205 563.862C796.27 564.365 797.148 565.077 797.839 565.997C798.537 566.909 798.976 567.974 799.155 569.193H796.854C796.616 568.085 796.04 567.139 795.128 566.355C794.225 565.562 793.074 565.166 791.677 565.166C790.424 565.166 789.316 565.507 788.353 566.189C787.39 566.862 786.635 567.804 786.09 569.014C785.553 570.216 785.285 571.609 785.285 573.195C785.285 574.788 785.549 576.199 786.077 577.426C786.606 578.645 787.347 579.599 788.302 580.29C789.265 580.98 790.39 581.325 791.677 581.325C792.546 581.325 793.339 581.163 794.055 580.839C794.779 580.507 795.384 580.038 795.87 579.433C796.364 578.828 796.697 578.108 796.867 577.273H799.168C798.998 578.457 798.576 579.514 797.903 580.443C797.238 581.364 796.373 582.088 795.307 582.616C794.251 583.145 793.04 583.409 791.677 583.409ZM809.53 583.447C808.345 583.447 807.263 583.217 806.282 582.757C805.302 582.288 804.523 581.615 803.943 580.737C803.363 579.851 803.074 578.777 803.074 577.516C803.074 576.544 803.257 575.726 803.623 575.061C803.99 574.396 804.51 573.851 805.183 573.425C805.856 572.999 806.653 572.662 807.574 572.415C808.494 572.168 809.508 571.976 810.616 571.839C811.716 571.703 812.645 571.584 813.403 571.482C814.17 571.379 814.754 571.217 815.155 570.996C815.555 570.774 815.756 570.416 815.756 569.922V569.462C815.756 568.124 815.355 567.071 814.554 566.304C813.761 565.528 812.619 565.141 811.128 565.141C809.713 565.141 808.558 565.452 807.663 566.074C806.777 566.696 806.155 567.429 805.797 568.273L803.636 567.493C804.079 566.419 804.693 565.562 805.477 564.923C806.261 564.276 807.139 563.811 808.111 563.53C809.082 563.24 810.067 563.095 811.064 563.095C811.814 563.095 812.594 563.193 813.403 563.389C814.221 563.585 814.98 563.926 815.679 564.412C816.378 564.889 816.944 565.558 817.379 566.419C817.814 567.271 818.031 568.354 818.031 569.666V583H815.756V579.893H815.615C815.342 580.473 814.937 581.036 814.4 581.581C813.863 582.126 813.19 582.574 812.381 582.923C811.571 583.273 810.621 583.447 809.53 583.447ZM809.836 581.364C811.047 581.364 812.095 581.095 812.981 580.558C813.868 580.021 814.55 579.31 815.027 578.423C815.513 577.528 815.756 576.544 815.756 575.47V572.632C815.585 572.794 815.3 572.939 814.899 573.067C814.507 573.195 814.051 573.31 813.531 573.412C813.02 573.506 812.508 573.587 811.997 573.655C811.486 573.723 811.025 573.783 810.616 573.834C809.508 573.97 808.562 574.183 807.778 574.473C806.994 574.763 806.393 575.163 805.976 575.675C805.558 576.178 805.349 576.825 805.349 577.618C805.349 578.811 805.775 579.736 806.628 580.392C807.48 581.04 808.55 581.364 809.836 581.364ZM831.819 563.364V565.345H822.448V563.364H831.819ZM825.376 558.659H827.664V577.874C827.664 578.692 827.805 579.335 828.086 579.804C828.367 580.264 828.733 580.592 829.185 580.788C829.637 580.976 830.118 581.07 830.63 581.07C830.928 581.07 831.184 581.053 831.397 581.018C831.61 580.976 831.797 580.933 831.959 580.891L832.445 582.949C832.224 583.034 831.951 583.111 831.627 583.179C831.303 583.256 830.903 583.294 830.425 583.294C829.59 583.294 828.785 583.111 828.009 582.744C827.242 582.378 826.611 581.832 826.117 581.108C825.623 580.384 825.376 579.484 825.376 578.411V558.659ZM844.715 583.409C842.882 583.409 841.297 582.983 839.959 582.131C838.621 581.27 837.585 580.081 836.852 578.564C836.128 577.038 835.766 575.283 835.766 573.297C835.766 571.32 836.128 569.564 836.852 568.03C837.585 566.487 838.595 565.281 839.882 564.412C841.178 563.534 842.673 563.095 844.369 563.095C845.435 563.095 846.462 563.291 847.45 563.683C848.439 564.067 849.325 564.659 850.11 565.46C850.902 566.253 851.529 567.254 851.989 568.464C852.449 569.666 852.679 571.089 852.679 572.734V573.859H837.338V571.852H850.352C850.352 570.591 850.097 569.457 849.585 568.452C849.083 567.437 848.379 566.636 847.476 566.048C846.581 565.46 845.546 565.166 844.369 565.166C843.125 565.166 842.03 565.499 841.084 566.163C840.138 566.828 839.396 567.706 838.86 568.797C838.331 569.888 838.063 571.081 838.054 572.376V573.578C838.054 575.138 838.323 576.501 838.86 577.669C839.405 578.828 840.176 579.727 841.173 580.366C842.171 581.006 843.351 581.325 844.715 581.325C845.644 581.325 846.458 581.18 847.156 580.891C847.864 580.601 848.456 580.213 848.933 579.727C849.419 579.233 849.786 578.692 850.033 578.104L852.193 578.807C851.895 579.634 851.405 580.396 850.723 581.095C850.05 581.794 849.206 582.357 848.192 582.783C847.186 583.2 846.027 583.409 844.715 583.409ZM864.763 583.409C863.153 583.409 861.742 582.983 860.532 582.131C859.322 581.278 858.376 580.089 857.694 578.564C857.02 577.038 856.684 575.261 856.684 573.233C856.684 571.213 857.02 569.445 857.694 567.928C858.376 566.402 859.326 565.217 860.545 564.374C861.763 563.521 863.182 563.095 864.802 563.095C865.995 563.095 866.988 563.308 867.78 563.734C868.573 564.152 869.208 564.672 869.685 565.294C870.162 565.916 870.533 566.521 870.797 567.109H871.002V556.818H873.29V583H871.066V579.357H870.797C870.533 579.953 870.158 580.567 869.672 581.197C869.187 581.82 868.543 582.344 867.742 582.77C866.949 583.196 865.956 583.409 864.763 583.409ZM865.032 581.325C866.302 581.325 867.384 580.98 868.279 580.29C869.174 579.591 869.856 578.632 870.324 577.413C870.802 576.186 871.04 574.78 871.04 573.195C871.04 571.626 870.806 570.241 870.337 569.04C869.868 567.83 869.187 566.884 868.292 566.202C867.397 565.511 866.31 565.166 865.032 565.166C863.719 565.166 862.611 565.524 861.708 566.24C860.813 566.947 860.131 567.906 859.662 569.116C859.202 570.327 858.972 571.686 858.972 573.195C858.972 574.72 859.206 576.097 859.675 577.324C860.144 578.551 860.826 579.527 861.721 580.251C862.624 580.967 863.728 581.325 865.032 581.325ZM889.922 583V563.364H892.211V583H889.922ZM891.086 559.989C890.617 559.989 890.216 559.831 889.884 559.516C889.552 559.192 889.385 558.804 889.385 558.352C889.385 557.901 889.552 557.517 889.884 557.202C890.216 556.878 890.617 556.716 891.086 556.716C891.555 556.716 891.955 556.878 892.287 557.202C892.62 557.517 892.786 557.901 892.786 558.352C892.786 558.804 892.62 559.192 892.287 559.516C891.955 559.831 891.555 559.989 891.086 559.989ZM900.504 570.727V583H898.229V563.364H900.441V566.445H900.645C901.105 565.439 901.821 564.634 902.793 564.028C903.773 563.415 904.983 563.108 906.423 563.108C907.744 563.108 908.904 563.385 909.901 563.939C910.906 564.484 911.686 565.29 912.24 566.355C912.803 567.42 913.084 568.729 913.084 570.28V583H910.808V570.42C910.808 568.81 910.357 567.536 909.453 566.598C908.558 565.661 907.357 565.192 905.848 565.192C904.817 565.192 903.901 565.413 903.1 565.857C902.298 566.3 901.664 566.939 901.195 567.774C900.735 568.601 900.504 569.585 900.504 570.727ZM950.065 556.818V583H947.738L932.27 561.075H932.065V583H929.675V556.818H931.988L947.508 578.768H947.713V556.818H950.065ZM964.185 583.409C962.489 583.409 960.989 582.979 959.685 582.118C958.39 581.257 957.376 580.068 956.643 578.551C955.91 577.026 955.543 575.266 955.543 573.271C955.543 571.26 955.91 569.491 956.643 567.966C957.376 566.432 958.39 565.239 959.685 564.386C960.989 563.526 962.489 563.095 964.185 563.095C965.881 563.095 967.377 563.526 968.672 564.386C969.968 565.247 970.982 566.44 971.715 567.966C972.456 569.491 972.827 571.26 972.827 573.271C972.827 575.266 972.461 577.026 971.728 578.551C970.995 580.068 969.976 581.257 968.672 582.118C967.377 582.979 965.881 583.409 964.185 583.409ZM964.185 581.325C965.549 581.325 966.704 580.959 967.65 580.226C968.596 579.493 969.312 578.517 969.797 577.298C970.292 576.08 970.539 574.737 970.539 573.271C970.539 571.805 970.292 570.459 969.797 569.232C969.312 568.004 968.596 567.02 967.65 566.278C966.704 565.537 965.549 565.166 964.185 565.166C962.83 565.166 961.675 565.537 960.721 566.278C959.775 567.02 959.055 568.004 958.56 569.232C958.074 570.459 957.831 571.805 957.831 573.271C957.831 574.737 958.074 576.08 958.56 577.298C959.055 578.517 959.775 579.493 960.721 580.226C961.667 580.959 962.822 581.325 964.185 581.325ZM977.823 583V563.364H980.034V566.381H980.2C980.593 565.392 981.274 564.595 982.246 563.99C983.226 563.376 984.334 563.07 985.57 563.07C985.757 563.07 985.966 563.074 986.196 563.082C986.426 563.091 986.618 563.099 986.771 563.108V565.422C986.669 565.405 986.49 565.379 986.235 565.345C985.979 565.311 985.702 565.294 985.404 565.294C984.381 565.294 983.469 565.511 982.668 565.946C981.875 566.372 981.249 566.964 980.789 567.723C980.328 568.482 980.098 569.347 980.098 570.318V583H977.823ZM999.619 563.364V565.345H990.249V563.364H999.619ZM993.176 558.659H995.465V577.874C995.465 578.692 995.605 579.335 995.887 579.804C996.168 580.264 996.534 580.592 996.986 580.788C997.438 580.976 997.919 581.07 998.431 581.07C998.729 581.07 998.985 581.053 999.198 581.018C999.411 580.976 999.598 580.933 999.76 580.891L1000.25 582.949C1000.02 583.034 999.752 583.111 999.428 583.179C999.104 583.256 998.703 583.294 998.226 583.294C997.391 583.294 996.585 583.111 995.81 582.744C995.043 582.378 994.412 581.832 993.918 581.108C993.423 580.384 993.176 579.484 993.176 578.411V558.659ZM1007.48 570.727V583H1005.21V556.818H1007.48V566.445H1007.69C1008.15 565.43 1008.86 564.621 1009.82 564.016C1010.8 563.411 1012.02 563.108 1013.51 563.108C1014.84 563.108 1016 563.381 1017.01 563.926C1018.01 564.472 1018.8 565.277 1019.36 566.342C1019.92 567.408 1020.21 568.72 1020.21 570.28V583H1017.92V570.42C1017.92 568.801 1017.47 567.527 1016.56 566.598C1015.67 565.661 1014.46 565.192 1012.93 565.192C1011.88 565.192 1010.95 565.413 1010.13 565.857C1009.31 566.3 1008.67 566.939 1008.19 567.774C1007.72 568.601 1007.48 569.585 1007.48 570.727ZM1034.14 583.409C1032.3 583.409 1030.72 582.983 1029.38 582.131C1028.04 581.27 1027.01 580.081 1026.27 578.564C1025.55 577.038 1025.19 575.283 1025.19 573.297C1025.19 571.32 1025.55 569.564 1026.27 568.03C1027.01 566.487 1028.02 565.281 1029.3 564.412C1030.6 563.534 1032.1 563.095 1033.79 563.095C1034.86 563.095 1035.88 563.291 1036.87 563.683C1037.86 564.067 1038.75 564.659 1039.53 565.46C1040.32 566.253 1040.95 567.254 1041.41 568.464C1041.87 569.666 1042.1 571.089 1042.1 572.734V573.859H1026.76V571.852H1039.77C1039.77 570.591 1039.52 569.457 1039.01 568.452C1038.5 567.437 1037.8 566.636 1036.9 566.048C1036 565.46 1034.97 565.166 1033.79 565.166C1032.55 565.166 1031.45 565.499 1030.51 566.163C1029.56 566.828 1028.82 567.706 1028.28 568.797C1027.75 569.888 1027.48 571.081 1027.48 572.376V573.578C1027.48 575.138 1027.74 576.501 1028.28 577.669C1028.83 578.828 1029.6 579.727 1030.6 580.366C1031.59 581.006 1032.77 581.325 1034.14 581.325C1035.07 581.325 1035.88 581.18 1036.58 580.891C1037.29 580.601 1037.88 580.213 1038.36 579.727C1038.84 579.233 1039.21 578.692 1039.45 578.104L1041.62 578.807C1041.32 579.634 1040.83 580.396 1040.15 581.095C1039.47 581.794 1038.63 582.357 1037.61 582.783C1036.61 583.2 1035.45 583.409 1034.14 583.409ZM1052.6 583.447C1051.42 583.447 1050.33 583.217 1049.35 582.757C1048.37 582.288 1047.59 581.615 1047.01 580.737C1046.43 579.851 1046.14 578.777 1046.14 577.516C1046.14 576.544 1046.33 575.726 1046.69 575.061C1047.06 574.396 1047.58 573.851 1048.25 573.425C1048.93 572.999 1049.72 572.662 1050.64 572.415C1051.56 572.168 1052.58 571.976 1053.69 571.839C1054.79 571.703 1055.72 571.584 1056.47 571.482C1057.24 571.379 1057.82 571.217 1058.22 570.996C1058.63 570.774 1058.83 570.416 1058.83 569.922V569.462C1058.83 568.124 1058.43 567.071 1057.62 566.304C1056.83 565.528 1055.69 565.141 1054.2 565.141C1052.78 565.141 1051.63 565.452 1050.73 566.074C1049.85 566.696 1049.22 567.429 1048.87 568.273L1046.71 567.493C1047.15 566.419 1047.76 565.562 1048.55 564.923C1049.33 564.276 1050.21 563.811 1051.18 563.53C1052.15 563.24 1053.14 563.095 1054.13 563.095C1054.88 563.095 1055.66 563.193 1056.47 563.389C1057.29 563.585 1058.05 563.926 1058.75 564.412C1059.45 564.889 1060.01 565.558 1060.45 566.419C1060.88 567.271 1061.1 568.354 1061.1 569.666V583H1058.83V579.893H1058.69C1058.41 580.473 1058.01 581.036 1057.47 581.581C1056.93 582.126 1056.26 582.574 1055.45 582.923C1054.64 583.273 1053.69 583.447 1052.6 583.447ZM1052.91 581.364C1054.12 581.364 1055.17 581.095 1056.05 580.558C1056.94 580.021 1057.62 579.31 1058.1 578.423C1058.58 577.528 1058.83 576.544 1058.83 575.47V572.632C1058.66 572.794 1058.37 572.939 1057.97 573.067C1057.58 573.195 1057.12 573.31 1056.6 573.412C1056.09 573.506 1055.58 573.587 1055.07 573.655C1054.56 573.723 1054.1 573.783 1053.69 573.834C1052.58 573.97 1051.63 574.183 1050.85 574.473C1050.06 574.763 1049.46 575.163 1049.05 575.675C1048.63 576.178 1048.42 576.825 1048.42 577.618C1048.42 578.811 1048.85 579.736 1049.7 580.392C1050.55 581.04 1051.62 581.364 1052.91 581.364ZM1080.35 567.672L1078.26 568.26C1078.06 567.672 1077.77 567.139 1077.39 566.662C1077.02 566.185 1076.53 565.805 1075.92 565.524C1075.33 565.243 1074.59 565.102 1073.7 565.102C1072.37 565.102 1071.28 565.418 1070.43 566.048C1069.58 566.679 1069.15 567.493 1069.15 568.49C1069.15 569.334 1069.44 570.02 1070.02 570.548C1070.61 571.068 1071.51 571.482 1072.73 571.788L1075.69 572.517C1077.34 572.918 1078.57 573.553 1079.39 574.422C1080.22 575.291 1080.63 576.382 1080.63 577.695C1080.63 578.803 1080.32 579.787 1079.71 580.648C1079.09 581.509 1078.24 582.186 1077.14 582.68C1076.05 583.166 1074.78 583.409 1073.34 583.409C1071.42 583.409 1069.84 582.979 1068.6 582.118C1067.35 581.249 1066.56 579.996 1066.21 578.359L1068.39 577.822C1068.68 578.99 1069.23 579.872 1070.04 580.469C1070.87 581.065 1071.96 581.364 1073.3 581.364C1074.81 581.364 1076.02 581.027 1076.92 580.354C1077.83 579.672 1078.28 578.82 1078.28 577.797C1078.28 577.004 1078.01 576.339 1077.48 575.803C1076.96 575.257 1076.15 574.857 1075.08 574.601L1071.87 573.834C1070.17 573.425 1068.91 572.777 1068.09 571.891C1067.27 571.004 1066.86 569.905 1066.86 568.592C1066.86 567.51 1067.15 566.56 1067.74 565.741C1068.33 564.915 1069.14 564.267 1070.17 563.798C1071.2 563.33 1072.38 563.095 1073.7 563.095C1075.5 563.095 1076.93 563.504 1078.01 564.322C1079.09 565.132 1079.87 566.249 1080.35 567.672ZM1093.35 563.364V565.345H1083.98V563.364H1093.35ZM1086.9 558.659H1089.19V577.874C1089.19 578.692 1089.33 579.335 1089.61 579.804C1089.89 580.264 1090.26 580.592 1090.71 580.788C1091.16 580.976 1091.65 581.07 1092.16 581.07C1092.46 581.07 1092.71 581.053 1092.92 581.018C1093.14 580.976 1093.32 580.933 1093.49 580.891L1093.97 582.949C1093.75 583.034 1093.48 583.111 1093.15 583.179C1092.83 583.256 1092.43 583.294 1091.95 583.294C1091.12 583.294 1090.31 583.111 1089.54 582.744C1088.77 582.378 1088.14 581.832 1087.64 581.108C1087.15 580.384 1086.9 579.484 1086.9 578.411V558.659ZM1102.3 579.42L1102.07 580.788C1101.92 581.709 1101.72 582.723 1101.45 583.831C1101.19 584.939 1100.92 585.991 1100.64 586.989C1100.35 587.986 1100.11 588.787 1099.91 589.392H1098.16C1098.27 588.813 1098.41 588.075 1098.58 587.18C1098.76 586.286 1098.94 585.293 1099.13 584.202C1099.32 583.119 1099.49 582.003 1099.64 580.852L1099.82 579.42H1102.3ZM1118.92 583V556.818H1127.37C1129.23 556.818 1130.78 557.176 1132.02 557.892C1133.28 558.599 1134.22 559.562 1134.85 560.781C1135.49 562 1135.81 563.372 1135.81 564.898C1135.81 566.423 1135.49 567.8 1134.86 569.027C1134.23 570.246 1133.29 571.213 1132.05 571.929C1130.81 572.636 1129.26 572.99 1127.41 572.99H1120.76V570.842H1127.35C1128.72 570.842 1129.86 570.587 1130.76 570.075C1131.66 569.555 1132.34 568.848 1132.78 567.953C1133.23 567.058 1133.46 566.04 1133.46 564.898C1133.46 563.756 1133.23 562.737 1132.78 561.842C1132.34 560.947 1131.66 560.244 1130.75 559.733C1129.84 559.222 1128.7 558.966 1127.31 558.966H1121.31V583H1118.92ZM1138.79 583H1136.28L1145.81 556.818H1148.36L1157.89 583H1155.38L1147.17 559.925H1146.99L1138.79 583ZM1140.59 572.964H1153.58V575.112H1140.59V572.964ZM1163.72 583.192C1163.21 583.192 1162.78 583.013 1162.41 582.655C1162.05 582.288 1161.88 581.854 1161.88 581.351C1161.88 580.839 1162.05 580.405 1162.41 580.047C1162.78 579.689 1163.21 579.51 1163.72 579.51C1164.23 579.51 1164.66 579.689 1165.02 580.047C1165.38 580.405 1165.56 580.839 1165.56 581.351C1165.56 581.683 1165.47 581.99 1165.3 582.271C1165.14 582.553 1164.92 582.778 1164.64 582.949C1164.36 583.111 1164.06 583.192 1163.72 583.192Z" fill="#C7C7C7"/>
<g filter="url(#filter0_d_26_57)">
<path d="M100.271 35.4659C103.42 30.5679 110.58 30.5679 113.729 35.4659L141.51 78.6734C144.933 83.9975 141.11 91 134.781 91H79.2193C72.8897 91 69.0671 83.9975 72.4902 78.6735L100.271 35.4659Z" fill="#E6E6E6"/>
</g>
<g filter="url(#filter1_d_26_57)">
<path d="M68.2709 10.4659C71.42 5.56794 78.5799 5.56793 81.7291 10.4659L109.51 53.6734C112.933 58.9975 109.11 66 102.781 66H47.2193C40.8897 66 37.0671 58.9975 40.4902 53.6735L68.2709 10.4659Z" fill="#D9D9D9"/>
</g>
<g filter="url(#filter2_d_26_57)">
<path d="M42.2709 23.4659C45.42 18.5679 52.5799 18.5679 55.7291 23.4659L83.5098 66.6734C86.9329 71.9975 83.1103 79 76.7807 79H21.2193C14.8897 79 11.0671 71.9975 14.4902 66.6735L42.2709 23.4659Z" fill="#E7E7E7"/>
</g>
<defs>
<filter id="filter0_d_26_57" x="67.2062" y="31.7924" width="79.5875" height="67.2076" filterUnits="userSpaceOnUse" color-interpolation-filters="sRGB">
<feFlood flood-opacity="0" result="BackgroundImageFix"/>
<feColorMatrix in="SourceAlpha" type="matrix" values="0 0 0 0 0 0 0 0 0 0 0 0 0 0 0 0 0 0 127 0" result="hardAlpha"/>
<feOffset dy="4"/>
<feGaussianBlur stdDeviation="2"/>
<feComposite in2="hardAlpha" operator="out"/>
<feColorMatrix type="matrix" values="0 0 0 0 0 0 0 0 0 0 0 0 0 0 0 0 0 0 0.25 0"/>
<feBlend mode="normal" in2="BackgroundImageFix" result="effect1_dropShadow_26_57"/>
<feBlend mode="normal" in="SourceGraphic" in2="effect1_dropShadow_26_57" result="shape"/>
</filter>
<filter id="filter1_d_26_57" x="35.2062" y="6.79242" width="79.5875" height="67.2076" filterUnits="userSpaceOnUse" color-interpolation-filters="sRGB">
<feFlood flood-opacity="0" result="BackgroundImageFix"/>
<feColorMatrix in="SourceAlpha" type="matrix" values="0 0 0 0 0 0 0 0 0 0 0 0 0 0 0 0 0 0 127 0" result="hardAlpha"/>
<feOffset dy="4"/>
<feGaussianBlur stdDeviation="2"/>
<feComposite in2="hardAlpha" operator="out"/>
<feColorMatrix type="matrix" values="0 0 0 0 0 0 0 0 0 0 0 0 0 0 0 0 0 0 0.25 0"/>
<feBlend mode="normal" in2="BackgroundImageFix" result="effect1_dropShadow_26_57"/>
<feBlend mode="normal" in="SourceGraphic" in2="effect1_dropShadow_26_57" result="shape"/>
</filter>
<filter id="filter2_d_26_57" x="9.20618" y="19.7924" width="79.5875" height="67.2076" filterUnits="userSpaceOnUse" color-interpolation-filters="sRGB">
<feFlood flood-opacity="0" result="BackgroundImageFix"/>
<feColorMatrix in="SourceAlpha" type="matrix" values="0 0 0 0 0 0 0 0 0 0 0 0 0 0 0 0 0 0 127 0" result="hardAlpha"/>
<feOffset dy="4"/>
<feGaussianBlur stdDeviation="2"/>
<feComposite in2="hardAlpha" operator="out"/>
<feColorMatrix type="matrix" values="0 0 0 0 0 0 0 0 0 0 0 0 0 0 0 0 0 0 0.25 0"/>
<feBlend mode="normal" in2="BackgroundImageFix" result="effect1_dropShadow_26_57"/>
<feBlend mode="normal" in="SourceGraphic" in2="effect1_dropShadow_26_57" result="shape"/>
</filter>
</defs>
</svg>
